<?xml version="1.0" encoding="utf-8"?>
<!-- Generator: Adobe Illustrator 26.5.0, SVG Export Plug-In . SVG Version: 6.00 Build 0)  -->
<svg version="1.1" xmlns="http://www.w3.org/2000/svg" xmlns:xlink="http://www.w3.org/1999/xlink" x="0px" y="0px"
	 viewBox="0 0 566.93 566.93" style="enable-background:new 0 0 566.93 566.93;" xml:space="preserve">
<style type="text/css">
	.st0{fill:#2B1055;}
	.st1{display:none;}
	.st2{display:inline;fill:#FFFFFF;}
	.st3{display:inline;fill:#FFFFFF;stroke:#2B1055;stroke-width:15;stroke-miterlimit:10;}
	.st4{fill:#FFFFFF;}
</style>
<g id="Layer_1">
	<path class="st0" d="M427.63,519.55H139.3c-50.77,0-91.92-41.15-91.92-91.92V139.3c0-50.77,41.15-91.92,91.92-91.92h288.33
		c50.77,0,91.92,41.15,91.92,91.92v288.33C519.55,478.4,478.4,519.55,427.63,519.55z"/>
</g>
<g id="Layer_2" class="st1">
	<path class="st2" d="M441.95,423.72H120.43c-10.59,0-19.17-8.58-19.17-19.17V172.52c0-10.59,8.58-19.17,19.17-19.17h321.52
		c10.59,0,19.17,8.58,19.17,19.17v232.03C461.12,415.14,452.53,423.72,441.95,423.72z"/>
	<path class="st3" d="M465.59,408.31L285.27,241.45c-2.78-2.58-7.11-2.58-9.9,0L95.05,408.31"/>
	<path class="st3" d="M95.3,173.25l180.32,166.86c2.78,2.58,7.11,2.58,9.9,0l180.32-166.86"/>
</g>
<g id="Layer_4" class="st1">
	<path class="st2" d="M243.24,109.17l192.08,332.66l28.18-46.97c10.95-18.25,11.13-41.01,0.47-59.44L349.93,138.38
		c-10.46-18.08-29.77-29.21-50.66-29.21H243.24z"/>
	<path class="st2" d="M95.01,363.89l31.38,50.94c10.34,16.78,28.64,27,48.35,27h200.03l-43.84-77.95H95.01z"/>
	<polygon class="st2" points="213.32,157.56 123.83,312.55 302.81,312.55 	"/>
</g>
<g id="Layer_6">
	<path class="st4" d="M228.39,519.55h124.14c-0.55-32.37-1.1-64.73-1.65-97.1l-0.06-2.51c-0.22-8.98-3.97-17.51-10.42-23.75
		l-2.53-2.45c50.54-4.43,92.36-37.78,104.55-81.39c9.92-35.46-0.3-75.75-20.16-101.1c2.57-6,5.73-15.52,5.99-27.49
		c0.41-19.19-6.88-33.49-10.63-39.8c-9.57,0.73-23.87,3.04-39.48,10.43c-10.12,4.79-18.02,10.4-23.81,15.23
		c-14.99-3.7-34.76-7.08-58.04-7.12c-26.17-0.05-48.08,4.12-64.09,8.43c-8.62-6.39-21.04-14.15-37.22-20
		c-11.47-4.15-21.94-6.29-30.5-7.41c-3.9,6.67-10.85,20.71-10.95,39.53c-0.06,11.87,2.63,21.48,4.97,27.76
		c-2.7,3.05-42.05,49.08-25.73,105.43c13.46,46.46,58.94,79.82,111.74,80.06c-0.05,0.03-0.1,0.07-0.15,0.1
		c-9.57,6.22-15.41,16.8-15.58,28.21l-0.05,3.74c-4.05,2.72-15.41,9.55-30.73,8.55c-14.73-0.96-28.44-8.84-35.85-19.29
		c-3.1-4.38-2.92-6.14-7.73-12.63c-3.86-5.22-8.55-11.55-16.46-16.17c-7.49-4.37-18.36-4.28-25.13-3.72
		c-3.8,0.32-4.75,5.52-1.31,7.15c8.27,3.92,13.63,8.62,17.22,12.69c5.12,5.82,5.33,8.99,17.07,28.92
		c7.18,12.2,10.77,18.3,13.17,20.77c15.15,15.63,36.45,16.61,40.03,16.72c12.26,0.38,22.05-3.08,27.98-5.84
		c0.66-0.31,1.4,0.18,1.4,0.91L228.39,519.55z"/>
</g>
</svg>
